PathFileType	4	(X/Y/Z)	 s07c0402.trc
DataRate	CameraRate	NumFrames	NumMarkers	Units	OrigDataRate	OrigDataStartFrame	OrigNumFrames
200	200	6	48	mm	200	751	2000
Frame#	Time	racr			lacr			c7			jug			rlel			rdr			llel			ldr			s2			lic			ric			lasi			rasi			rpsi			lpsi			rgt			lgt			rth1			rth2			rth3			rth4			rlfc			rmfc			rsh1			rsh2			rsh3			rsh4			rlmal			rcal			rtoe			rmt5			lth1			lth2			lth4			lth3			llfc			lmfc			lsh1			lsh2			lsh3			lsh4			llmal			lcal			ltoe			lmt5			SBIKE			LBIKE			RBIKE			
		X1	Y1	Z1	X2	Y2	Z2	X3	Y3	Z3	X4	Y4	Z4	X5	Y5	Z5	X6	Y6	Z6	X7	Y7	Z7	X8	Y8	Z8	X9	Y9	Z9	X10	Y10	Z10	X11	Y11	Z11	X12	Y12	Z12	X13	Y13	Z13	X14	Y14	Z14	X15	Y15	Z15	X16	Y16	Z16	X17	Y17	Z17	X18	Y18	Z18	X19	Y19	Z19	X20	Y20	Z20	X21	Y21	Z21	X22	Y22	Z22	X23	Y23	Z23	X24	Y24	Z24	X25	Y25	Z25	X26	Y26	Z26	X27	Y27	Z27	X28	Y28	Z28	X29	Y29	Z29	X30	Y30	Z30	X31	Y31	Z31	X32	Y32	Z32	X33	Y33	Z33	X34	Y34	Z34	X35	Y35	Z35	X36	Y36	Z36	X37	Y37	Z37	X38	Y38	Z38	X39	Y39	Z39	X40	Y40	Z40	X41	Y41	Z41	X42	Y42	Z42	X43	Y43	Z43	X44	Y44	Z44	X45	Y45	Z45	X46	Y46	Z46	X47	Y47	Z47	X48	Y48	Z48	
751	3.7550	787.752756	1424.751712	-98.185325	777.219636	1442.945182	-421.304761	774.331256	1480.835285	-259.817870	729.562047	1335.240894	-271.258810	551.031370	1176.180256	40.504123	696.939603	941.518182	-42.133058	547.324816	1179.033547	-513.085425	702.193266	945.355007	-429.093706	190.102081	1268.944034	-239.649870	348.052952	1319.085697	-373.368947	380.409963	1261.992944	-100.008903	368.080005	1235.324684	-367.197968	380.965898	1205.526326	-117.428692	227.926013	1298.001083	-184.736489	230.062631	1317.858042	-290.781924	282.205196	1140.814849	-65.800748	284.171450	1174.838791	-428.893746	315.076978	989.212665	-66.528007	338.734871	904.720198	-72.905380	321.941885	820.986886	-68.657313	372.536874	906.529373	-87.817565	320.070004	681.664143	-92.767258	301.441646	667.614604	-193.568347	228.515875	572.352445	-62.581918	197.590161	490.148154	-77.478099	132.007196	432.877221	-73.002845	212.183995	482.522878	-114.956308	47.755595	321.706909	-73.978966	-25.710827	325.798468	-103.608103	195.639858	137.289713	-122.074038	113.182949	154.831371	-51.330822	368.225224	1086.892509	-431.380069	450.702348	1055.226636	-432.624224	472.269956	1083.784340	-423.110863	507.047379	986.105353	-429.254089	630.060895	858.173612	-395.099236	618.188378	845.113974	-292.492162	515.186413	765.520975	-407.864934	457.949916	703.463162	-388.452784	373.539385	672.515085	-393.983401	450.482419	688.753210	-344.434182	255.097668	605.258659	-393.983667	171.798391	609.171237	-360.258801	401.022492	433.533410	-352.756719	321.791882	456.795060	-419.417154	-259.379210	972.205831	-233.021958	-75.850066	83.750975	-438.153940	-82.753256	79.743939	-40.591016	
752	3.7600	788.522071	1423.780433	-100.229155	777.548018	1441.420691	-423.081377	775.426786	1479.543339	-261.453068	729.263755	1334.386304	-273.111788	551.495247	1176.395013	39.312876	697.122158	941.220575	-42.329119	545.980467	1178.521071	-513.128328	702.041829	945.704616	-429.041831	190.025038	1272.101633	-239.558542	347.158706	1322.017788	-373.704357	380.326605	1265.544507	-100.272053	367.195990	1238.382803	-367.521957	381.249758	1209.088686	-118.182104	228.187066	1301.339859	-184.923662	229.946142	1321.142819	-291.235841	283.608344	1143.550513	-65.843763	282.900904	1177.221391	-428.534149	319.761299	991.868293	-67.336463	345.404533	908.007677	-74.366617	330.757827	823.888686	-69.740167	378.731656	910.774082	-89.824832	329.788241	684.396739	-93.089258	311.085045	670.364258	-193.846989	235.572525	577.535089	-62.854981	204.055357	496.182140	-76.637435	136.190549	440.029539	-72.622211	217.727011	488.275150	-114.791803	49.637827	331.038947	-73.340863	-23.279399	338.764073	-103.739662	186.542726	137.741277	-122.154647	105.328111	160.180030	-51.427687	366.417039	1087.870200	-430.883650	448.601554	1055.350339	-432.018397	470.532168	1083.736519	-422.797485	504.215550	985.774475	-428.379663	626.577750	857.358981	-393.753700	614.536908	843.815049	-291.354790	512.760014	760.776270	-402.325826	462.091348	698.750071	-384.521513	373.002318	666.966883	-393.774784	450.545741	685.093091	-344.031420	256.018977	596.530788	-393.608317	172.234679	597.173254	-360.350738	409.345423	431.972097	-352.917569	329.004734	451.495541	-419.980610	-259.312070	972.285091	-233.124933	-75.848497	83.781364	-438.147601	-82.717316	79.799337	-40.599805	
753	3.7650	789.259938	1422.411585	-102.319055	778.145957	1439.501004	-424.392734	776.398211	1478.006255	-262.962580	727.751768	1333.386352	-273.607429	551.835810	1176.498032	38.201723	697.204593	940.994666	-42.476169	544.729608	1178.076747	-513.321730	701.828122	945.962467	-429.007866	189.819785	1274.923202	-239.298888	346.144928	1324.667677	-374.200527	380.194570	1268.860993	-100.546385	366.074201	1241.183974	-368.163463	381.521025	1212.542265	-118.905468	228.410202	1304.263690	-184.973090	229.533311	1323.957106	-291.236121	285.036709	1146.274842	-65.911653	281.525408	1179.393408	-428.165141	324.768223	994.590437	-67.967512	352.420165	911.404576	-75.843055	339.781130	827.122786	-70.899538	385.231599	915.369253	-91.697087	339.800811	687.584962	-93.343775	321.342495	673.171677	-194.218102	243.424445	582.828459	-63.329794	210.191693	501.959714	-76.629224	141.265050	447.378582	-72.417505	223.983776	493.253354	-114.904887	52.425984	340.259718	-72.743342	-19.859417	351.687819	-103.887367	177.465533	138.593660	-122.242215	97.986162	166.052453	-51.511800	364.564451	1088.673036	-430.438455	446.461391	1055.335111	-431.834897	468.568949	1083.286993	-422.388923	501.016112	984.900835	-427.522422	622.344475	855.727349	-392.700690	610.254769	841.868806	-290.209289	509.231780	759.911277	-406.530957	460.312515	694.068855	-384.524355	371.985049	660.525564	-393.499923	450.176477	680.892725	-343.774107	256.669924	586.952343	-393.345843	172.734732	584.128845	-360.409675	416.973128	429.807212	-353.087489	335.789576	445.539854	-420.328886	-259.252823	972.346720	-233.295908	-75.825962	83.806759	-438.159947	-82.739009	79.975394	-40.570805	
754	3.7700	789.294909	1420.654645	-105.929866	779.535756	1437.471854	-426.364238	777.163412	1476.322182	-264.357556	725.860096	1331.825873	-273.154938	552.174770	1176.474718	37.257055	697.298398	940.797261	-42.593370	543.595905	1177.536496	-513.615262	701.590370	946.163230	-429.037711	189.458913	1277.504991	-239.018714	344.870955	1326.962180	-374.572747	380.087852	1271.970859	-100.775786	364.929393	1243.580029	-368.549591	381.853727	1215.790956	-119.697361	228.666262	1306.873773	-185.072293	228.983150	1326.504033	-291.229196	286.578101	1148.813097	-65.924853	280.007417	1181.387938	-427.789512	330.153237	997.401082	-68.686809	359.762660	915.026391	-77.302108	349.543405	830.362849	-71.903188	392.064808	919.823144	-93.855395	350.175400	690.854221	-93.813909	331.978675	676.235078	-194.869223	251.940198	587.980665	-64.045159	216.926033	507.782554	-76.950121	147.055420	454.605772	-72.373268	230.785407	498.528029	-115.020412	55.998197	349.434946	-72.406978	-15.695219	364.658450	-103.973083	168.580823	139.821355	-121.895445	91.062037	172.183292	-51.409981	362.667876	1089.509427	-429.846252	443.938777	1054.855332	-431.409496	466.406305	1082.532229	-422.125552	497.511778	983.666249	-426.751983	617.008619	853.483101	-393.078248	605.689381	839.164525	-288.471584	505.313821	755.926994	-406.599406	457.685281	688.780274	-384.707168	370.389041	653.228086	-393.148501	449.417263	676.189146	-343.664141	257.221152	576.677050	-392.874118	173.112374	570.479098	-360.149020	423.986534	426.860973	-353.428185	342.246405	439.115966	-420.667408	-259.174163	972.424564	-233.543406	-75.805983	83.784951	-438.180635	-82.716276	80.008924	-40.610863	
755	3.7750	789.771018	1418.996647	-107.850811	780.463632	1435.090313	-427.140758	777.885265	1474.507793	-265.774652	725.575619	1330.552125	-274.727856	552.348834	1176.339173	36.372751	697.162973	940.455195	-42.760433	542.613545	1177.023880	-514.014698	701.263281	945.137842	-426.655639	188.952266	1279.736483	-238.572169	343.562436	1328.868988	-375.118342	379.888117	1275.074953	-100.969137	363.680988	1245.675838	-369.020700	382.114575	1218.883315	-120.368610	229.114653	1309.004223	-185.259343	228.488906	1328.615472	-290.996594	288.177433	1151.138844	-65.875890	278.450961	1183.031218	-427.441285	335.748436	1000.235821	-69.358007	367.362312	918.713712	-78.782013	359.567883	833.905392	-73.083280	399.130145	924.301352	-96.043750	360.885721	694.168104	-94.591760	342.815538	679.515174	-195.580085	260.807341	593.049135	-64.830246	224.059752	513.539770	-77.494665	153.244511	461.798894	-72.706241	237.859955	503.909023	-115.486232	60.589723	358.058782	-72.156247	-10.291222	377.244014	-104.544960	159.693399	141.689874	-121.749270	83.989891	179.271069	-51.087190	360.420889	1089.946771	-429.625312	441.035043	1053.892830	-430.688537	464.871954	1081.260972	-421.362552	493.629533	982.010749	-426.253755	612.175225	850.068790	-390.977511	600.138250	835.795034	-288.776228	501.144500	750.854956	-406.558552	450.279657	683.280473	-387.976333	368.612299	645.075955	-392.884698	448.304711	671.019879	-343.696227	257.500102	565.828952	-392.362112	173.740595	556.131071	-359.926509	430.278124	423.105324	-353.984624	348.127235	431.829517	-420.782066	-259.105996	972.436687	-233.781896	-75.799624	83.767809	-438.188887	-82.676125	80.084764	-40.600910	
756	3.7800	789.999986	1417.272689	-109.424464	781.426842	1432.601031	-427.785064	778.444668	1472.629620	-267.028063	725.071936	1328.971300	-275.808880	552.309529	1176.040838	35.675632	697.040012	940.172749	-42.884697	541.759571	1176.335242	-514.494637	700.961111	945.436020	-427.000044	188.518024	1281.841541	-238.238083	342.391858	1330.389200	-375.644394	379.704852	1277.884015	-101.196989	362.430085	1247.339751	-369.513043	382.341769	1221.807173	-121.055611	229.065374	1310.953366	-185.381838	227.809751	1330.530428	-290.805137	289.799132	1153.341615	-65.512283	276.640074	1184.201047	-426.838033	341.466062	1003.154371	-70.057881	374.930700	922.467001	-80.139437	369.639581	837.580712	-74.440904	406.146592	928.796108	-98.771707	371.555040	697.662579	-95.596561	353.785144	683.062269	-196.526496	269.826013	598.082205	-65.733956	231.392692	519.235341	-78.315042	159.642637	469.058813	-73.267184	245.075444	509.362936	-116.302057	65.858280	366.264967	-72.065181	-4.931304	389.650424	-105.213648	150.876805	144.267191	-121.619528	78.370640	185.973954	-51.804539	357.900888	1089.852068	-429.262337	437.999031	1052.703157	-430.430916	462.204510	1079.782949	-421.496711	489.344492	980.050707	-426.189281	606.364804	846.215911	-390.461661	594.378040	832.223097	-289.475499	496.752471	745.024144	-406.581991	452.400152	675.389192	-384.639361	366.744449	636.156989	-392.674637	446.868438	665.421861	-343.858819	257.910369	554.343641	-391.898361	174.472633	541.890301	-359.792271	436.137928	418.331937	-354.191200	353.549332	424.041517	-420.967014	-259.069188	972.453933	-234.051939	-75.799187	83.750311	-438.229612	-82.764194	80.439395	-40.549816	
